Coordinates
version=1
nRows=9
nColumns=63
inDegrees=yes

Units are S.I. units (second, meters, Newtons, ...)
If the header above contains a line with 'inDegrees', this indicates whether rotational values are in degrees (yes) or radians (no).

endheader
time	pelvis_tilt	pelvis_list	pelvis_rotation	pelvis_tx	pelvis_ty	pelvis_tz	hip_flexion_r	hip_adduction_r	hip_rotation_r	knee_angle_r	knee_angle_r_beta	ankle_angle_r	subtalar_angle_r	mtp_angle_r	hip_flexion_l	hip_adduction_l	hip_rotation_l	knee_angle_l	knee_angle_l_beta	ankle_angle_l	subtalar_angle_l	mtp_angle_l	L5_S1_Flex_Ext	L5_S1_Lat_Bending	L5_S1_axial_rotation	L4_L5_Flex_Ext	L4_L5_Lat_Bending	L4_L5_axial_rotation	L3_L4_Flex_Ext	L3_L4_Lat_Bending	L3_L4_axial_rotation	L2_L3_Flex_Ext	L2_L3_Lat_Bending	L2_L3_axial_rotation	L1_L2_Flex_Ext	L1_L2_Lat_Bending	L1_L2_axial_rotation	L1_T12_Flex_Ext	L1_T12_Lat_Bending	L1_T12_axial_rotation	Abs_r3	Abs_r2	Abs_r1	Abs_t1	Abs_t2	neck_flexion	neck_bending	neck_rotation	arm_flex_r	arm_add_r	arm_rot_r	elbow_flex_r	pro_sup_r	wrist_flex_r	wrist_dev_r	arm_flex_l	arm_add_l	arm_rot_l	elbow_flex_l	pro_sup_l	wrist_flex_l	wrist_dev_l
      1.84745763	     -1.80714519	     -2.19748914	     88.25302441	      0.29397776	      0.98364482	      0.62558200	      3.34369247	     -4.17331211	    -13.78383993	      9.11702311	      0.15912207	     29.25765786	     10.26087368	      0.00000000	      6.98904288	      1.71018951	     11.45442699	     10.05536882	      0.17549929	     33.55038392	      1.74444147	      0.00000000	     -0.28724126	      0.60925472	      1.43405544	     -0.53343574	      0.81030877	      1.52368390	     -0.47190867	      1.48134192	      1.52368390	     -0.32828804	      1.48134192	      1.25479851	     -0.26673223	      1.24239222	      1.16517004	     -0.16412966	      0.94373556	      1.07554158	     -2.05173559	      6.89201122	      7.97578612	      0.00000000	      0.00000000	     24.11555147	     -8.86742092	     23.74638077	      8.26228910	    -16.76900828	    123.62172231	      1.17814794	      1.26706897	      2.54031031	     -8.49869036	     31.51548619	    -13.28499683	    -19.30991173	    133.69797453	     88.56530944	      3.99648545	     -2.55900504
      1.86440678	     -2.08681471	     -2.22379261	     88.68895774	      0.29435101	      0.98337289	      0.62513270	      3.18922856	     -4.38520520	    -13.77538136	      9.01693396	      0.15737519	     29.50949086	     10.21472231	      0.00000000	      7.17989172	      2.00934170	     11.70113624	     10.48510491	      0.18299960	     33.65224833	      2.18101219	      0.00000000	     -0.28230687	      0.56998153	      1.39059167	     -0.52427209	      0.75807544	      1.47750365	     -0.46380196	      1.38585309	      1.47750365	     -0.32264852	      1.38585309	      1.21676771	     -0.26215016	      1.16230634	      1.12985573	     -0.16131015	      0.88290139	      1.04294375	     -2.01648976	      6.44774507	      7.73405369	      0.00000000	      0.00000000	     24.47852765	     -7.04701184	     23.71806199	      8.43179531	    -16.44760666	    121.51186648	      1.32371729	      1.17297661	      2.87166965	     -9.41399004	     30.32987219	    -13.03974645	    -19.54752325	    137.66214504	     88.62852303	      6.41941021	     -3.89621763
      1.88135593	     -2.23560167	     -2.20246966	     89.18448671	      0.29465813	      0.98305703	      0.62437723	      2.91302512	     -4.42353965	    -13.53404360	      8.82505632	      0.15402629	     29.60136821	      9.63259143	      0.00000000	      7.33859056	      2.15005639	     11.71249220	     10.95903828	      0.19127130	     34.07688940	      3.18213463	      0.00000000	     -0.28434465	      0.53475871	      1.32072253	     -0.52805645	      0.71122909	      1.40326769	     -0.46714983	      1.30021233	      1.40326769	     -0.32497750	      1.30021233	      1.15563221	     -0.26404244	      1.09047997	      1.07308705	     -0.16247453	      0.82834124	      0.99054190	     -2.03104541	      6.04929750	      7.34546249	      0.00000000	      0.00000000	     25.03500847	     -5.45112701	     23.30111954	      8.72219866	    -16.10423926	    118.58345815	      1.69216359	      1.19151671	      3.24572135	     -9.83002834	     28.71593912	    -12.05923190	    -21.72562442	    142.35136974	     88.66636353	     12.85532816	     -4.41506611
      1.89830508	     -2.56935724	     -2.22341195	     89.83382202	      0.29517070	      0.98238137	      0.62345073	      2.72790238	     -4.65438594	    -13.39448729	      8.80455853	      0.15366854	     29.79578531	      8.70036580	      0.00000000	      7.55460007	      2.47282319	     11.84097440	     11.44224759	      0.19970489	     34.58528216	      4.26516556	      0.00000000	     -0.28052896	      0.46238656	      1.19973332	     -0.52097033	      0.61497412	      1.27471665	     -0.46088102	      1.12424668	      1.27471665	     -0.32061655	      1.12424668	      1.04976666	     -0.26049919	      0.94289867	      0.97478332	     -0.16029425	      0.71623678	      0.89979999	     -2.00379029	      5.23060922	      6.67255681	      0.00000000	      0.00000000	     25.65602223	     -3.84175441	     22.73967175	      9.03231509	    -15.51875860	    117.20436405	      1.88262380	      1.18037577	      3.32951277	    -10.44132432	     27.15705795	    -10.79801477	    -25.41657055	    146.65994421	     88.60362427	     21.66638471	     -6.80117220
      1.91525424	     -2.71221116	     -1.97594084	     90.16573121	      0.29609121	      0.98218774	      0.62261581	      2.26460516	     -4.64962115	    -12.84973572	      8.64474660	      0.15087929	     29.54405139	      7.61977284	      0.00000000	      7.44792599	      2.51299126	     11.37649076	     11.86086559	      0.20701116	     35.22874242	      5.74853318	      0.00000000	     -0.30347423	      0.41619130	      1.22909875	     -0.56358199	      0.55353443	      1.30591743	     -0.49857781	      1.01192754	      1.30591743	     -0.34684069	      1.01192754	      1.07546141	     -0.28180617	      0.84869731	      0.99864274	     -0.17340517	      0.64468033	      0.92182407	     -2.16768605	      4.70803926	      6.83587854	      0.00000000	      0.00000000	     26.00071290	     -3.32040596	     21.10639970	      9.10198838	    -15.16695399	    115.81784406	      2.08371398	      1.19706612	      3.44858027	    -11.09836014	     26.98291932	     -8.44717592	    -30.31171433	    149.16351742	     87.98964466	     35.88095516	     -9.94043727
      1.93220339	     -3.08349870	     -1.61320734	     90.64533294	      0.29755638	      0.98219997	      0.62205831	      1.73228950	     -4.81150880	    -11.98460955	      8.54590011	      0.14915409	     29.23710875	      5.54469775	      0.00000000	      7.18990633	      2.69292548	     10.40563248	     12.16354476	      0.21229390	     35.77346627	      7.96336867	      0.00000000	     -0.34335958	      0.34393135	      1.28509869	     -0.63765308	      0.45742869	      1.36541736	     -0.56410546	      0.83623468	      1.36541736	     -0.39242567	      0.83623468	      1.12446136	     -0.31884371	      0.70134480	      1.04414269	     -0.19619567	      0.53274966	      0.96382402	     -2.45258317	      3.89062019	      7.14733341	      0.00000000	      0.00000000	     25.99164886	     -3.31025245	     19.02372873	      8.99900098	    -14.63231818	    115.04946747	      1.97962565	      1.18180548	      3.49246469	    -11.85544507	     28.26126345	     -6.47803336	    -33.89764816	    149.56960687	     84.93691796	     49.76182485	    -12.50154881
      1.94915254	     -3.29329927	     -1.36264055	     91.03334990	      0.29853153	      0.98235000	      0.62067490	      1.31459772	     -4.91360668	    -11.90509936	      8.49883781	      0.14833270	     28.95783992	      4.79788008	      0.00000000	      6.87082414	      2.81247559	     10.49678472	     12.24084695	      0.21364308	     35.90087486	      8.67189351	      0.00000000	     -0.35909782	      0.31813091	      1.18111714	     -0.66688057	      0.42311411	      1.25493696	     -0.58996182	      0.77350350	      1.25493696	     -0.41041290	      0.77350350	      1.03347750	     -0.33345824	      0.64873255	      0.95965768	     -0.20518850	      0.49278478	      0.88583786	     -2.56499985	      3.59876048	      6.56901921	      0.00000000	      0.00000000	     25.83680880	     -3.43408155	     18.69232912	      9.21805333	    -14.25400452	    115.36380804	      1.94549343	      1.21025405	      3.40549129	    -12.37865094	     28.74161330	     -5.37460582	    -36.79620229	    149.61800944	     83.09641725	     55.08146537	    -15.20772458
      1.96610169	     -3.42892029	     -1.21232398	     91.37278350	      0.29917626	      0.98247406	      0.61877074	      0.96124408	     -4.94893324	    -11.72987281	      8.36264063	      0.14595561	     28.65474512	      4.15675897	      0.00000000	      6.54509949	      2.87520546	     10.67756659	     12.16212059	      0.21226905	     35.78645139	      9.13231950	      0.00000000	     -0.35388297	      0.31611462	      0.95634898	     -0.65719606	      0.42043245	      1.01612079	     -0.58139433	      0.76860109	      1.01612079	     -0.40445285	      0.76860109	      0.83680536	     -0.32861572	      0.64462094	      0.77703355	     -0.20220873	      0.48966155	      0.71726174	     -2.52775066	      3.57595182	      5.31892613	      0.00000000	      0.00000000	     25.61972485	     -3.53133955	     19.42775908	      9.64852091	    -13.93030530	    116.71296234	      1.91312218	      1.25133797	      3.29494973	    -12.74068185	     28.52921621	     -5.25283817	    -38.93333391	    149.51421239	     81.85275418	     52.00480688	    -15.43572808
      1.98305085	     -3.52997201	     -1.12620964	     91.75132597	      0.29958953	      0.98253349	      0.61680096	      0.66503709	     -4.93919377	    -11.33863118	      8.20879166	      0.14327044	     28.44106993	      3.38247505	      0.00000000	      6.30398737	      2.92227065	     10.94454738	     12.13079010	      0.21172223	     35.52291530	      9.40187841	      0.00000000	     -0.33379289	      0.32751593	      0.65965644	     -0.61988679	      0.43559618	      0.70088497	     -0.54838835	      0.79632222	      0.70088497	     -0.38149190	      0.79632222	      0.57719938	     -0.30996008	      0.66787048	      0.53597086	     -0.19072926	      0.50732217	      0.49474233	     -2.38424927	      3.70492567	      3.66881121	      0.00000000	      0.00000000	     25.34142726	     -3.61852645	     20.79761076	     10.14199090	    -13.60947917	    118.93634818	      1.82014902	      1.24025142	      3.03224077	    -12.88941837	     27.39538078	     -6.22168576	    -39.19462981	    148.93414912	     82.87217288	     39.84721128	    -15.73389996
